<?xml version="1.0" encoding="UTF-8"?> <svg xmlns="http://www.w3.org/2000/svg" width="36" height="36" viewBox="0 0 36 36" fill="none"><path fill-rule="evenodd" clip-rule="evenodd" d="M18 36C27.9411 36 36 27.9411 36 18C36 8.05887 27.9411 0 18 0C8.05887 0 0 8.05887 0 18C0 27.9411 8.05887 36 18 36ZM13.0344 18C13.0344 15.249 15.2533 13.03 18.0043 13.03C20.7553 13.03 22.9743 15.249 22.9743 18C22.9743 20.751 20.7553 22.97 18.0043 22.97C15.2533 22.97 13.0344 20.751 13.0344 18ZM14.7732 18C14.7732 19.7821 16.2266 21.2311 18.0043 21.2311C19.7821 21.2311 21.2355 19.7821 21.2355 18C21.2355 16.2179 19.7864 14.7689 18.0043 14.7689C16.2222 14.7689 14.7732 16.2179 14.7732 18ZM23.1776 13.986C23.8178 13.986 24.3368 13.4712 24.3368 12.8267C24.3368 12.1866 23.8178 11.6675 23.1776 11.6675C22.5374 11.6675 22.0184 12.1866 22.0184 12.8267C22.0184 13.4669 22.5331 13.986 23.1776 13.986ZM26.0627 9.94164C27.2003 11.0749 27.555 12.4504 27.6285 14.0033C27.7193 15.6037 27.7193 20.3963 27.6285 21.9967C27.5506 23.5496 27.196 24.9251 26.0627 26.0584C24.9294 27.196 23.5539 27.5506 22.0011 27.6242C20.4006 27.715 15.6037 27.715 14.0033 27.6242C12.4504 27.5463 11.0792 27.1916 9.94164 26.0584C8.80404 24.9251 8.44935 23.5496 8.37582 21.9967C8.28498 20.3963 8.28498 15.5994 8.37582 13.9989C8.45368 12.4461 8.80404 11.0706 9.94164 9.93731C11.0792 8.80404 12.4547 8.44935 14.0033 8.37582C15.6037 8.28498 20.4006 8.28498 22.0011 8.37582C23.5539 8.45368 24.9294 8.80837 26.0627 9.94164ZM23.7183 25.5566C24.5704 25.2149 25.2235 24.5617 25.5609 23.714C25.995 22.6232 25.9708 20.2373 25.9552 18.6906C25.9526 18.4341 25.9502 18.2006 25.9502 18C25.9502 17.7993 25.9526 17.5659 25.9552 17.3094C25.9708 15.7636 25.995 13.3805 25.5609 12.286C25.2192 11.4339 24.5661 10.7808 23.7183 10.4434C22.6241 10.0117 20.2266 10.0347 18.6804 10.0495C18.4296 10.0519 18.2012 10.0541 18.0043 10.0541C17.8037 10.0541 17.5702 10.0517 17.3138 10.0491C15.768 10.0335 13.3848 10.0093 12.2904 10.4434C11.4383 10.7851 10.7851 11.4383 10.4477 12.286C10.016 13.3802 10.039 15.7777 10.0538 17.3239C10.0562 17.5747 10.0584 17.8032 10.0584 18C10.0584 18.2007 10.0561 18.4341 10.0535 18.6906C10.0378 20.2364 10.0137 22.6195 10.4477 23.714C10.7894 24.5661 11.4426 25.2192 12.2904 25.5566C13.3846 25.9883 15.7821 25.9653 17.3282 25.9505C17.5791 25.9481 17.8075 25.9459 18.0043 25.9459C18.205 25.9459 18.4384 25.9483 18.6949 25.9509C20.2407 25.9665 22.6238 25.9907 23.7183 25.5566Z" fill="url(#paint0_linear)"></path><defs><linearGradient id="paint0_linear" x1="0" y1="0" x2="36" y2="36" gradientUnits="userSpaceOnUse"><stop stop-color="#405DE6"></stop><stop offset="0.166667" stop-color="#5851DB"></stop><stop offset="0.286458" stop-color="#833AB4"></stop><stop offset="0.40625" stop-color="#C13584"></stop><stop offset="0.526042" stop-color="#E1306C"></stop><stop offset="0.614583" stop-color="#FD1D1D"></stop><stop offset="0.729167" stop-color="#F56040"></stop><stop offset="0.776042" stop-color="#F77737"></stop><stop offset="0.84375" stop-color="#FCAF45"></stop><stop offset="0.911458" stop-color="#FCAF45"></stop><stop offset="1" stop-color="#FFDC80"></stop></linearGradient></defs></svg> 