<?xml version="1.0" encoding="UTF-8"?> <svg xmlns="http://www.w3.org/2000/svg" width="36" height="36" viewBox="0 0 36 36" fill="none"><circle cx="18" cy="18" r="18" fill="#0077B5"></circle><path d="M13.4116 24.9231H9.96684V13.8298H13.4116V24.9231ZM11.6874 12.3166C10.5859 12.3166 9.69238 11.4042 9.69238 10.3027C9.69238 9.77359 9.90257 9.26615 10.2767 8.89202C10.6508 8.51788 11.1583 8.30769 11.6874 8.30769C12.2165 8.30769 12.7239 8.51788 13.0981 8.89202C13.4722 9.26615 13.6824 9.77359 13.6824 10.3027C13.6824 11.4042 12.7886 12.3166 11.6874 12.3166ZM26.3044 24.9231H22.867V19.523C22.867 18.236 22.8411 16.5855 21.076 16.5855C19.285 16.5855 19.0106 17.9838 19.0106 19.4302V24.9231H15.5695V13.8298H18.8733V15.3431H18.9215C19.3814 14.4715 20.5049 13.5517 22.1809 13.5517C25.6672 13.5517 26.3081 15.8475 26.3081 18.8294V24.9231H26.3044Z" fill="white"></path></svg> 