<svg
    width="30"
    height="30"
    viewBox="0 0 36 36"
    fill="none"
    xmlns="http://www.w3.org/2000/svg"
>
    <path
        fill-Rule="evenodd"
        clip-Rule="evenodd"
        d="M18 36C27.9411 36 36 27.9411 36 18C36 8.05887 27.9411 0 18 0C8.05887 0 0 8.05887 0 18C0 27.9411 8.05887 36 18 36ZM21.5382 19.5804L24.6007 20.8929C24.7424 20.9545 24.8581 21.0636 24.9281 21.2013C24.998 21.3391 25.0177 21.4969 24.9838 21.6476L24.3276 24.4914C24.2942 24.636 24.2127 24.7651 24.0965 24.8575C23.9803 24.9499 23.8362 25.0001 23.6877 25C16.6849 25 11 19.3261 11 12.3123C11 12.1639 11.0502 12.0198 11.1426 11.9037C11.235 11.7875 11.364 11.7061 11.5086 11.6727L14.3524 11.0164C14.5024 10.9823 14.6596 11.0017 14.7968 11.071C14.9341 11.1404 15.0429 11.2555 15.1044 11.3965L16.4169 14.4591C16.4729 14.5899 16.4848 14.7353 16.4508 14.8735C16.4167 15.0116 16.3386 15.1349 16.2282 15.2247L14.5712 16.581C15.5747 18.7095 17.2877 20.4225 19.4163 21.4261L20.7726 19.769C20.8625 19.6589 20.9858 19.5809 21.1239 19.5469C21.262 19.5129 21.4074 19.5246 21.5382 19.5804Z"
        fill="#FD9800">
    </path>
</svg>
