<?xml version="1.0" encoding="UTF-8"?>
<svg version="1.1" xmlns="http://www.w3.org/2000/svg" width="32" height="32">
    <path
        d="M0 0 C4.36563955 3.40519885 6.65875906 6.44779007 7.50390625 11.8671875 C7.78817485 17.90101785 6.84570953 21.66735957 3.125 26.4375 C-1.64514043 30.15820953 -5.41148215 31.10067485 -11.4453125 30.81640625 C-16.86470993 29.97125906 -19.90730115 27.67813955 -23.3125 23.3125 C-25.8128279 18.26854848 -25.92696073 12.71164997 -24.21484375 7.3828125 C-22.32987667 3.58023822 -19.73226178 0.98262333 -15.9296875 -0.90234375 C-10.60085003 -2.61446073 -5.04395152 -2.5003279 0 0 Z "
        fill="#FDF7EF" transform="translate(24.875,1.5625)" />
    <path
        d="M0 0 C2.375 1.25 2.375 1.25 4 3 C4 4.32 4 5.64 4 7 C3.01 7 2.02 7 1 7 C0.34 5.68 -0.32 4.36 -1 3 C-2.98 3 -4.96 3 -7 3 C-8.19876651 8.44893869 -7.91360308 11.22169095 -5 16 C-1.65747276 16.07427838 0.8035914 16.06546953 4 15 C2.25 18.875 2.25 18.875 0 20 C-4.04637274 20.44959697 -6.15244824 20.65196289 -9.4375 18.125 C-11.64975235 13.70049529 -11.91481535 9.85249882 -11 5 C-7.9135694 0.46113147 -5.45394022 -0.92833025 0 0 Z "
        fill="#EF9611" transform="translate(19,3)" />
    <path
        d="M0 0 C1.4540625 0.0309375 1.4540625 0.0309375 2.9375 0.0625 C3.5975 1.7125 4.2575 3.3625 4.9375 5.0625 C5.9275 5.0625 6.9175 5.0625 7.9375 5.0625 C8.2675 4.4025 8.5975 3.7425 8.9375 3.0625 C8.9375 4.0525 8.9375 5.0425 8.9375 6.0625 C4.6475 6.0625 0.3575 6.0625 -4.0625 6.0625 C-4.3925 6.7225 -4.7225 7.3825 -5.0625 8.0625 C-4.046875 0.08258929 -4.046875 0.08258929 0 0 Z "
        fill="#F3B35F" transform="translate(15.0625,4.9375)" />
    <path
        d="M0 0 C3.36295301 0.41179016 4.7663775 0.9022527 7.0625 3.375 C7.0625 4.695 7.0625 6.015 7.0625 7.375 C6.0725 7.375 5.0825 7.375 4.0625 7.375 C3.4025 6.055 2.7425 4.735 2.0625 3.375 C-0.5775 3.375 -3.2175 3.375 -5.9375 3.375 C-4.05554105 0.86572141 -3.17650531 0.40551132 0 0 Z "
        fill="#F09C21" transform="translate(15.9375,2.625)" />
    <path d="M0 0 C1.98 0 3.96 0 6 0 C6.33 1.32 6.66 2.64 7 4 C4.36 4 1.72 4 -1 4 C-0.67 2.68 -0.34 1.36 0 0 Z "
        fill="#FEFBF7" transform="translate(12,5)" />
</svg>