<?xml version="1.0" encoding="UTF-8"?> <svg xmlns="http://www.w3.org/2000/svg" width="176" height="60" viewBox="0 0 176 60" fill="none"><path d="M98.1601 38.1257C94.487 43.9444 91.1966 46.1643 86.2987 46.1643C81.937 46.1643 78.6466 43.9444 76.432 39.5806C75.0549 36.6718 74.5187 34.2212 74.3653 29.4755H97.9306C97.6411 27.1257 97.3183 25.3907 96.8582 23.9562C95.1776 24.4862 93.4595 24.9079 91.7018 25.1021C91.0776 25.1708 90.4448 25.2201 89.8153 25.2287C89.9275 25.7874 90.0316 26.3861 90.1274 27.0248H74.5144C75.1021 22.8027 76.5521 20.1869 78.9566 18.9905C79.9979 18.4744 81.2173 18.2212 82.6255 18.2212H82.7788C85.5876 18.2502 87.3518 19.086 88.523 21.2684H88.6302C89.7027 21.2051 90.7676 21.1236 91.8315 21.013C92.6477 20.9283 93.4617 20.8145 94.2671 20.6633C94.5534 20.6096 94.8366 20.5463 95.1165 20.4755C94.9653 20.2609 94.8065 20.0463 94.6382 19.8317C92.342 17.0763 88.8222 15.468 84.8433 15.468C84.158 15.4669 83.4734 15.5109 82.7939 15.6C81.3713 15.7867 79.9826 16.1747 78.6692 16.7523C77.1495 17.425 75.7458 18.3339 74.5101 19.4454C70.9174 22.5849 68.8518 28.0206 68.8518 34.2984C68.8518 44.8628 74.3611 51.4476 83.1617 51.4476C90.5081 51.4476 96.1707 46.9304 99.3838 38.6622L98.1601 38.1257Z" fill="#5D5D60"></path><path d="M154.902 15.4772C154.911 15.5749 154.919 15.6725 154.923 15.7723C154.938 16.1746 153.868 17.1103 153.935 17.5105L155.115 17.8324C160.517 19.1339 164.162 26.0223 164.162 35.4461C164.162 44.1736 160.719 49.3034 154.98 49.3034C151.995 49.3034 149.164 47.4654 147.556 44.4032C145.411 40.4225 144.19 35.0684 144.19 29.6274C144.19 29.5395 144.19 29.4515 144.19 29.3635C144.197 27.954 144.366 26.5499 144.693 25.1789C145.667 21.2294 147.999 18.5706 151.264 17.8238C151.261 17.6304 151.248 17.4374 151.224 17.2455C151.189 16.9622 151.155 16.6768 151.144 16.3925C151.134 16.1666 151.103 15.9422 151.052 15.7219C145.096 16.7165 140.595 20.5437 138.536 26.1167C138.085 27.347 137.759 28.6195 137.562 29.915C137.386 31.0618 137.299 32.2204 137.3 33.3806C137.3 43.7884 144.417 51.4482 154.059 51.4482C163.7 51.4482 171.047 43.4096 171.047 32.768C171.05 22.8989 164.336 15.8066 154.902 15.4772Z" fill="#5D5D60"></path><path d="M169.971 11.2081V7.24672H171.727C171.999 7.23542 172.271 7.27173 172.531 7.35402C172.716 7.42704 172.871 7.56002 172.972 7.7317C173.081 7.91134 173.138 8.11799 173.136 8.32827C173.142 8.59175 173.044 8.84714 172.863 9.03856C172.681 9.2317 172.4 9.35437 172.02 9.40659C172.136 9.45689 172.245 9.52336 172.342 9.60402C172.507 9.76092 172.651 9.93791 172.771 10.1308L173.46 11.2038H172.801L172.277 10.3787C172.124 10.1416 171.998 9.95917 171.899 9.83363C171.825 9.73157 171.736 9.64208 171.633 9.56861C171.56 9.51941 171.479 9.48312 171.394 9.46131C171.298 9.44563 171.2 9.43916 171.102 9.442H170.495V11.2017L169.971 11.2081ZM170.495 8.99457H171.621C171.811 9.00158 172.001 8.97655 172.182 8.92054C172.309 8.87803 172.417 8.79411 172.49 8.68234C172.56 8.57705 172.597 8.45354 172.597 8.32719C172.6 8.23991 172.582 8.15323 172.547 8.07344C172.511 7.99364 172.459 7.92273 172.393 7.86582C172.257 7.74493 172.043 7.68449 171.749 7.68449H170.496L170.495 8.99457Z" fill="#5D5D60"></path><path d="M171.523 5.38591C170.76 5.38591 170.013 5.61245 169.378 6.03689C168.744 6.46132 168.249 7.06459 167.956 7.77039C167.664 8.4762 167.588 9.25286 167.737 10.0021C167.886 10.7514 168.253 11.4397 168.793 11.9799C169.333 12.5201 170.021 12.888 170.77 13.037C171.519 13.1861 172.295 13.1096 173.001 12.8172C173.706 12.5248 174.309 12.0298 174.734 11.3946C175.158 10.7593 175.384 10.0125 175.384 9.24857C175.384 8.22413 174.978 7.24165 174.253 6.51726C173.529 5.79287 172.547 5.38591 171.523 5.38591V5.38591ZM171.523 12.5748C170.866 12.5748 170.223 12.3797 169.676 12.0142C169.13 11.6487 168.704 11.1292 168.452 10.5214C168.2 9.91366 168.134 9.24488 168.263 8.59967C168.391 7.95445 168.708 7.36178 169.173 6.89661C169.638 6.43143 170.23 6.11464 170.875 5.9863C171.52 5.85796 172.188 5.92383 172.796 6.17558C173.403 6.42733 173.922 6.85366 174.288 7.40064C174.653 7.94763 174.848 8.59071 174.848 9.24857C174.848 10.1307 174.498 10.9768 173.874 11.6005C173.251 12.2243 172.405 12.5748 171.523 12.5748V12.5748Z" fill="#5D5D60"></path><path d="M74.5499 1.45494C70.8767 1.68455 70.0348 2.5279 67.5091 8.57404L50.5213 51.5236H49.3738L30.5488 9.49356C27.2585 2.6824 26.1871 1.60944 22.4377 1.45494V0H42.791V1.45494C41.7957 1.53112 40.9538 1.6073 40.571 1.6073C38.1225 1.76073 37.0511 2.44957 37.0511 3.98069C37.0511 5.12983 37.6635 6.81331 40.1892 12.4785L51.7461 38.3552L62.9951 10.2586C63.9132 7.96245 64.4483 5.89485 64.4483 4.66953C64.4483 2.52361 63.0713 1.68455 58.8629 1.45064V0H74.5499V1.45494Z" fill="#5D5D60"></path><path d="M38.0452 58.7017L37.9841 59.823C37.7866 59.9094 37.5743 59.9571 37.3588 59.9635C37.1526 59.9672 36.948 59.9265 36.7589 59.8441C36.5697 59.7618 36.4006 59.6396 36.2628 59.4861C35.9317 59.1284 35.7659 58.6231 35.7651 57.97C35.7651 57.3584 35.921 56.867 36.2327 56.4958C36.3852 56.3145 36.577 56.1705 36.7935 56.0748C37.01 55.979 37.2456 55.934 37.4822 55.9432C37.6591 55.9448 37.8343 55.9771 38.0002 56.0387V57.147C37.9397 57.078 37.8661 57.0219 37.7835 56.9819C37.701 56.9419 37.6113 56.9189 37.5197 56.9142C37.4192 56.9115 37.3198 56.9354 37.2315 56.9835C37.1432 57.0315 37.0691 57.102 37.0167 57.1878C36.8844 57.4198 36.8215 57.685 36.8355 57.9518C36.8335 58.094 36.849 58.236 36.8816 58.3745C36.9061 58.4859 36.9497 58.5922 37.0103 58.6889C37.0623 58.7706 37.1338 58.838 37.2183 58.8852C37.3047 58.9314 37.4014 58.9546 37.4993 58.9528C37.7065 58.9414 37.9017 58.8517 38.0452 58.7017V58.7017Z" fill="#5D5D60"></path><path d="M51.1914 57.9678C51.1914 58.5586 51.0567 59.0397 50.7871 59.4109C50.6724 59.5834 50.5163 59.7243 50.333 59.8209C50.1498 59.9174 49.9453 59.9664 49.7382 59.9635C49.5536 59.9649 49.3707 59.9273 49.2014 59.8534C49.0322 59.7795 48.8804 59.6707 48.7559 59.5343C48.4127 59.1766 48.2407 58.6402 48.24 57.9249C48.24 57.2374 48.4187 56.7117 48.7762 56.3476C48.8979 56.2185 49.0449 56.1159 49.208 56.0462C49.3712 55.9766 49.5469 55.9415 49.7243 55.9431C49.9347 55.937 50.1433 55.984 50.3307 56.0798C50.5182 56.1756 50.6785 56.3172 50.7968 56.4914C51.0592 56.8562 51.1907 57.3483 51.1914 57.9678ZM50.1029 57.9753C50.1029 57.2721 49.9788 56.9209 49.7307 56.9216C49.6074 56.9216 49.5077 57.0128 49.4347 57.1974C49.3517 57.4387 49.3153 57.6936 49.3275 57.9485C49.317 58.206 49.3515 58.4635 49.4294 58.7092C49.4969 58.8894 49.5913 58.9796 49.7114 58.9796C49.8315 58.9796 49.9313 58.8916 49.9988 58.7135C50.0773 58.4756 50.1126 58.2256 50.1029 57.9753V57.9753Z" fill="#5D5D60"></path><path d="M64.2832 59.8956H63.1486L62.6316 58.5126C62.6316 58.489 62.6177 58.4579 62.6048 58.4192L62.5587 58.2819L62.5662 58.5383V59.8956H61.5227V56.0083H62.5952C63.0671 56.0083 63.4206 56.1016 63.6558 56.2883C63.954 56.5258 64.1031 56.8642 64.1031 57.3034C64.1031 57.7733 63.9029 58.0981 63.5025 58.2776L64.2832 59.8956ZM62.5673 57.8109H62.6381C62.6955 57.8119 62.7523 57.7999 62.8045 57.776C62.8567 57.752 62.9028 57.7166 62.9394 57.6725C63.0222 57.5743 63.0654 57.4488 63.0606 57.3205C63.0606 57.0308 62.9083 56.886 62.6059 56.886H62.5673V57.8109Z" fill="#5D5D60"></path><path d="M75.5615 59.8956H74.5137V56.0083H75.5293C76.0355 56.0083 76.4109 56.1117 76.6554 56.3184C76.9414 56.5609 77.0844 56.8985 77.0844 57.3313C77.0844 57.8019 76.931 58.1531 76.6243 58.3849C76.4098 58.5416 76.1138 58.6188 75.7223 58.6188H75.5583L75.5615 59.8956ZM75.5615 57.7497H75.6097C75.6657 57.7526 75.7216 57.7436 75.7739 57.7235C75.8262 57.7033 75.8737 57.6724 75.9132 57.6328C75.9528 57.5895 75.9833 57.5387 76.0028 57.4834C76.0223 57.4281 76.0305 57.3694 76.0269 57.3109C76.0332 57.1922 75.995 57.0755 75.9197 56.9836C75.8855 56.9422 75.8423 56.9091 75.7934 56.8868C75.7446 56.8645 75.6913 56.8536 75.6376 56.8549H75.5647L75.5615 57.7497Z" fill="#5D5D60"></path><path d="M90.1945 57.9678C90.1945 58.5586 90.0598 59.0397 89.7902 59.4109C89.6756 59.5832 89.5196 59.7241 89.3366 59.8206C89.1536 59.9171 88.9493 59.9662 88.7424 59.9635C88.5576 59.9649 88.3745 59.9275 88.205 59.8535C88.0356 59.7796 87.8836 59.6708 87.7589 59.5343C87.4157 59.1766 87.2441 58.6402 87.2441 57.9248C87.2441 57.2374 87.4229 56.7117 87.7804 56.3476C87.902 56.2184 88.049 56.1159 88.2122 56.0462C88.3753 55.9766 88.5511 55.9415 88.7285 55.9431C88.9389 55.937 89.1474 55.984 89.3349 56.0798C89.5223 56.1756 89.6826 56.3172 89.8009 56.4914C90.0633 56.8562 90.1945 57.3483 90.1945 57.9678ZM89.106 57.9753C89.106 57.2721 88.9823 56.9209 88.7349 56.9216C88.6105 56.9216 88.5118 57.0128 88.4378 57.1974C88.3554 57.4388 88.319 57.6936 88.3306 57.9485C88.3206 58.206 88.3551 58.4633 88.4325 58.7092C88.4997 58.8894 88.594 58.9796 88.7156 58.9796C88.8389 58.9796 88.9301 58.8916 89.0019 58.7135C89.0799 58.4755 89.114 58.2254 89.1028 57.9753H89.106Z" fill="#5D5D60"></path><path d="M103.278 59.8956H102.149L101.631 58.5126C101.631 58.489 101.617 58.4579 101.604 58.4192C101.591 58.3806 101.576 58.3355 101.558 58.2819L101.566 58.5383V59.8956H100.522V56.0083H101.595C102.068 56.0083 102.421 56.1016 102.655 56.2883C102.953 56.5258 103.103 56.8642 103.104 57.3034C103.104 57.7733 102.903 58.0981 102.502 58.2776L103.278 59.8956ZM101.562 57.8109H101.632C101.69 57.8119 101.747 57.8 101.799 57.776C101.851 57.7521 101.898 57.7167 101.935 57.6725C102.017 57.5742 102.06 57.4487 102.055 57.3205C102.055 57.0308 101.903 56.886 101.6 56.886H101.562V57.8109Z" fill="#5D5D60"></path><path d="M116.309 59.8959H115.225L115.147 59.4034H114.441L114.356 59.8959H113.272L114.205 56.0128H115.486L116.309 59.8959ZM115.022 58.5708L114.954 58.118C114.949 58.0958 114.945 58.0732 114.944 58.0504C114.944 58.0139 114.923 57.868 114.891 57.6126C114.891 57.5847 114.884 57.545 114.878 57.4957C114.873 57.4463 114.866 57.3884 114.859 57.3079L114.826 56.9409C114.826 56.9763 114.818 57.016 114.812 57.059C114.805 57.1019 114.8 57.1512 114.794 57.2027C114.782 57.31 114.773 57.3787 114.768 57.4173C114.762 57.456 114.759 57.4817 114.758 57.4903L114.685 57.9602L114.578 58.5686L115.022 58.5708Z" fill="#5D5D60"></path><path d="M127.852 59.8956H126.803V56.9439H126.229V56.0083H128.457V56.9396H127.856L127.852 59.8956Z" fill="#5D5D60"></path><path d="M139.656 59.8956H138.608V56.0083H139.656V59.8956Z" fill="#5D5D60"></path><path d="M152.934 57.9678C152.934 58.5586 152.799 59.0397 152.529 59.4109C152.414 59.5832 152.258 59.7241 152.075 59.8206C151.892 59.9171 151.688 59.9662 151.481 59.9635C151.296 59.9649 151.113 59.9274 150.944 59.8534C150.774 59.7795 150.622 59.6708 150.497 59.5343C150.154 59.1766 149.983 58.6402 149.983 57.9248C149.983 57.2374 150.161 56.7117 150.519 56.3476C150.64 56.2186 150.787 56.1161 150.95 56.0465C151.113 55.9769 151.289 55.9417 151.466 55.9431C151.676 55.937 151.885 55.984 152.072 56.0798C152.26 56.1756 152.42 56.3172 152.538 56.4914C152.802 56.8562 152.934 57.3483 152.934 57.9678ZM151.846 57.9753C151.846 57.2721 151.721 56.9209 151.473 56.9216C151.349 56.9216 151.25 57.0128 151.176 57.1974C151.094 57.4388 151.058 57.6936 151.069 57.9485C151.059 58.2059 151.093 58.4632 151.17 58.7092C151.241 58.8894 151.336 58.9796 151.453 58.9796C151.577 58.9796 151.668 58.8916 151.739 58.7135C151.82 58.476 151.857 58.2259 151.848 57.9753H151.846Z" fill="#5D5D60"></path><path d="M163.266 59.8956V56.0083H164.267L164.791 57.372C164.82 57.4525 164.853 57.5448 164.889 57.6488C164.926 57.7529 164.964 57.872 165.008 58.0083L165.115 58.3495C165.077 58.0126 165.047 57.725 165.027 57.4847C165.008 57.2443 164.997 57.0437 164.997 56.8817V56.0083H165.997V59.8913H164.997L164.469 58.4632C164.414 58.3109 164.361 58.1682 164.32 58.034C164.278 57.8999 164.236 57.7744 164.203 57.6531C164.224 57.9264 164.24 58.1646 164.251 58.3677C164.261 58.5705 164.266 58.7486 164.266 58.9042V59.8945L163.266 59.8956Z" fill="#5D5D60"></path><path d="M30.5331 38.6619C27.3157 46.9301 21.6563 51.4473 14.3099 51.4473C5.50926 51.4473 0 44.8625 0 34.2982C0 28.0203 2.06557 22.5846 5.66262 19.4452C8.57007 16.8422 12.1671 15.4645 15.9937 15.4645C19.9725 15.4645 23.4924 17.0739 25.7885 19.8282C27.7007 22.2778 28.4697 24.4988 29.0788 29.4752H5.50926C5.66262 34.2209 6.19885 36.6716 7.5759 39.5804C9.79483 43.9441 13.0852 46.164 17.4426 46.164C22.3405 46.164 25.6309 43.9441 29.3041 38.1254L30.5331 38.6619ZM21.2734 27.0246C20.2782 20.3647 18.4421 18.2209 13.7737 18.2209C9.10523 18.2209 6.5045 20.9774 5.66262 27.0246H21.2734Z" fill="#EF9500"></path><path d="M28.3494 55.9221H2.07397V59.9993H28.3494V55.9221Z" fill="#EF9500"></path><path d="M155.014 18.9024C154.969 19.4099 154.88 19.9125 154.748 20.4046L154.754 20.3799C154.891 19.8847 154.983 19.3785 155.03 18.867C155.021 18.8766 155.015 18.8891 155.014 18.9024Z" fill="#5E5E60"></path><path d="M155.008 16.4166C154.982 16.1634 154.951 15.923 154.918 15.702C154.918 15.6269 154.909 15.5518 154.902 15.4767H154.883C154.811 15.0287 154.715 14.5849 154.595 14.1473V14.1387C154.52 13.9166 154.437 13.6966 154.349 13.4778C153.874 12.2956 153.214 11.1962 152.394 10.2202C150.434 7.87046 147.881 6.46489 145.039 5.51424C143.942 5.15039 142.813 4.89066 141.667 4.73849C141.002 4.64836 140.345 4.51746 139.67 4.5239C139.601 4.5239 139.53 4.45308 139.455 4.4166H135.165C135.114 4.45308 135.065 4.51746 135.011 4.5239C134.554 4.56789 134.095 4.59364 133.638 4.63978C132.971 4.7063 132.299 4.74708 131.642 4.86725C130.47 5.08184 129.305 5.34579 128.142 5.60437C125.781 6.14189 123.465 6.86333 121.217 7.76209C119.478 8.44557 117.754 9.16982 116.059 9.95415C114.425 10.7052 112.82 11.5357 111.233 12.3855C109.849 13.1258 108.505 13.9423 107.142 14.7256C107.09 14.7081 107.039 14.6869 106.99 14.6623C105.239 13.6365 103.433 12.7052 101.582 11.8726C100.078 11.1875 98.534 10.5959 96.9575 10.1011C95.41 9.63119 93.8538 9.21381 92.2387 9.02819C91.5373 8.94664 90.8445 8.8136 90.1313 8.82647C89.8278 8.82647 89.5232 8.81789 89.2197 8.82647C88.4754 8.85651 87.7236 8.84364 86.9879 8.94664C86.0135 9.0852 85.0575 9.33134 84.1373 9.68055C82.6069 10.2599 81.291 11.1623 80.2764 12.4273C79.2619 13.6923 78.6538 15.1355 78.6677 16.7503C79.9819 16.1732 81.3714 15.7859 82.7946 15.6001C83.0777 14.9005 83.6075 14.3887 84.2317 13.9649C85.2419 13.2771 86.3766 12.9531 87.5821 12.7707C88.7028 12.6011 89.8257 12.6559 90.941 12.6999C91.829 12.7342 92.7202 12.9273 93.5921 13.129C96.9575 13.9037 100.089 15.2857 103.137 16.878C103.163 16.8908 103.175 16.9327 103.255 17.0572C102.051 17.6484 100.896 18.2621 99.7041 18.7878C98.2113 19.4466 96.7012 20.0754 95.1161 20.4735C94.8362 20.5443 94.5531 20.6076 94.2667 20.6612C93.4613 20.8125 92.6473 20.9263 91.8312 21.011C90.7673 21.1183 89.698 21.2031 88.6298 21.2664H88.5226C87.5574 21.3018 86.6383 21.0593 85.7342 20.7299C84.8764 20.437 84.1002 19.9451 83.4691 19.2943C83.1639 18.9901 82.927 18.6243 82.7742 18.2213H82.6208C81.2127 18.2213 79.9933 18.4745 78.9519 18.9906C79.2619 20.0743 79.8646 21.0293 80.6346 21.8973C81.5301 22.908 82.6584 23.6087 83.8863 24.1591C85.5047 24.8855 87.2281 25.1183 88.9677 25.2138C89.2465 25.2288 89.5275 25.2331 89.8085 25.2288C90.438 25.2202 91.0708 25.1709 91.695 25.1022C93.4527 24.908 95.1708 24.4863 96.8514 23.9563L97.0659 23.8898C100.008 22.9318 102.842 21.6678 105.521 20.1183C106.069 19.8039 106.624 19.5014 107.171 19.1956C108.156 19.7707 109.101 20.3426 110.066 20.8769C111.167 21.4863 112.281 22.0732 113.4 22.6494C116.662 24.3434 120.034 25.8184 123.493 27.0647C125.753 27.8744 128.061 28.5437 130.403 29.0689C131.502 29.3125 132.623 29.4509 133.736 29.628C134.067 29.6816 134.402 29.7074 134.735 29.7438C135.379 29.8136 136.033 29.9509 136.68 29.938C136.974 29.9316 137.269 29.923 137.564 29.9144C137.761 28.6189 138.087 27.3465 138.538 26.1162C138.195 26.1162 137.851 26.1086 137.506 26.0936C136.857 26.0668 136.21 25.9617 135.562 25.8919C135.212 25.8544 134.862 25.8157 134.512 25.7846C132.725 25.6011 130.984 25.1977 129.246 24.7567C126.387 24.0314 123.617 23.04 120.898 21.9102C119.008 21.1233 117.137 20.2907 115.286 19.4123C114.355 18.9702 113.493 18.3855 112.596 17.8726C112.244 17.6709 111.88 17.4917 111.524 17.2932C111.358 17.1999 111.202 17.0851 110.962 16.9252C112.238 16.2342 113.409 15.5765 114.608 14.9606C116.462 14.0046 118.341 13.0958 120.267 12.2857C122.805 11.1994 125.418 10.2954 128.085 9.58076C129.237 9.27819 130.409 9.04428 131.578 8.82111C132.301 8.67948 133.037 8.62046 133.762 8.48956C135.693 8.14407 137.635 8.24922 139.568 8.31038C140.841 8.35115 142.113 8.60973 143.352 8.97454C144.732 9.38119 146.034 9.92626 147.239 10.7288C148.775 11.7557 150 13.0432 150.735 14.761C150.872 15.0723 150.98 15.3956 151.057 15.7267C151.108 15.947 151.138 16.1715 151.148 16.3973C151.16 16.6816 151.193 16.967 151.229 17.2503C151.252 17.4422 151.266 17.6353 151.268 17.8286C151.288 19.0153 150.904 20.1044 150.284 21.1355C149.407 22.5958 148.121 23.5926 146.648 24.3951C146.028 24.7263 145.374 24.9907 144.697 25.1838C144.37 26.5547 144.201 27.9588 144.194 29.3683C144.557 29.2889 144.918 29.1966 145.274 29.0872C147.419 28.4262 149.403 27.4617 151.126 25.9756C151.933 25.2821 152.645 24.4852 153.244 23.6054C153.921 22.6331 154.428 21.5531 154.745 20.4112C154.877 19.9192 154.966 19.4166 155.011 18.9091C155.013 18.8973 155.019 18.8864 155.027 18.878C155.062 18.5228 155.077 18.173 155.078 17.8318C155.079 17.3592 155.056 16.8868 155.008 16.4166Z" fill="#EF9500"></path><path d="M108.13 49.5331C112.956 48.6909 113.41 48.2316 113.563 44.251V25.1072C113.563 21.7392 112.875 20.5138 110.962 20.5138C110.059 20.5106 109.159 20.6136 108.281 20.8207V19.5986C112.795 18.1437 115.55 17.149 119.606 15.4645L119.988 15.6179V22.6608C123.741 17.149 125.957 15.4645 129.171 15.4645C131.773 15.4645 133.379 16.9956 133.379 19.5224C133.379 21.6683 132.232 22.9677 130.395 22.9677C129.401 22.9677 128.559 22.5846 127.334 21.4366C126.492 20.6705 125.803 20.2874 125.344 20.2874C123.2 20.2874 119.982 24.1158 119.982 26.5653V43.7907C120.136 48.3078 121.36 49.3797 126.487 49.5331V50.6812H108.13V49.5331Z" fill="#5D5D60"></path></svg> 